<svg xmlns="http://www.w3.org/2000/svg" xmlns:xlink="http://www.w3.org/1999/xlink" width="480" zoomAndPan="magnify" viewBox="0 0 360 359.999987" height="480" preserveAspectRatio="xMidYMid meet" version="1.0"><defs><clipPath id="4f997dc814"><path d="M 18.144531 132.417969 L 113.394531 132.417969 L 113.394531 227.667969 L 18.144531 227.667969 Z M 18.144531 132.417969 " clip-rule="nonzero"/></clipPath><clipPath id="0f8dcaf6c7"><path d="M 132.265625 132.417969 L 227.515625 132.417969 L 227.515625 227.667969 L 132.265625 227.667969 Z M 132.265625 132.417969 " clip-rule="nonzero"/></clipPath><clipPath id="c25e6f5d7a"><path d="M 246.695312 132.417969 L 341.945312 132.417969 L 341.945312 227.667969 L 246.695312 227.667969 Z M 246.695312 132.417969 " clip-rule="nonzero"/></clipPath></defs><g clip-path="url(#4f997dc814)"><path fill="#333333" d="M 65.769531 132.417969 C 39.464844 132.417969 18.144531 153.742188 18.144531 180.042969 C 18.144531 206.347656 39.464844 227.667969 65.769531 227.667969 C 92.070312 227.667969 113.394531 206.347656 113.394531 180.042969 C 113.394531 153.742188 92.070312 132.417969 65.769531 132.417969 " fill-opacity="1" fill-rule="nonzero"/></g><g clip-path="url(#0f8dcaf6c7)"><path fill="#333333" d="M 179.890625 132.417969 C 153.589844 132.417969 132.265625 153.742188 132.265625 180.042969 C 132.265625 206.347656 153.589844 227.667969 179.890625 227.667969 C 206.195312 227.667969 227.515625 206.347656 227.515625 180.042969 C 227.515625 153.742188 206.195312 132.417969 179.890625 132.417969 " fill-opacity="1" fill-rule="nonzero"/></g><g clip-path="url(#c25e6f5d7a)"><path fill="#333333" d="M 294.320312 132.417969 C 268.019531 132.417969 246.695312 153.742188 246.695312 180.042969 C 246.695312 206.347656 268.019531 227.667969 294.320312 227.667969 C 320.625 227.667969 341.945312 206.347656 341.945312 180.042969 C 341.945312 153.742188 320.625 132.417969 294.320312 132.417969 " fill-opacity="1" fill-rule="nonzero"/></g></svg>
